<svg width="24" height="24" viewBox="0 0 24 24" fill="none" xmlns="http://www.w3.org/2000/svg">
    <path
        d="M12 2C12.74 2 13.42 2.55 13.92 3.54L15.64 6.99C15.77 7.25 16.04 7.5 16.33 7.67L19.45 8.19C20.51 8.37 21.22 8.85 21.45 9.55C21.68 10.25 21.38 11.06 20.62 11.82L18.19 14.25C17.84 14.6 17.64 15.29 17.75 15.78L18.44 18.79C18.73 20.04 18.55 20.98 17.94 21.43C17.69 21.61 17.39 21.7 17.04 21.7C16.53 21.7 15.93 21.51 15.27 21.12L12.34 19.38C11.88 19.11 11.12 19.11 10.66 19.38L7.73 21.12C6.62 21.77 5.67 21.88 5.06 21.43C4.83 21.26 4.66 21.03 4.55 20.73L5.74 16C5.85 15.51 5.65 14.81 5.3 14.46L2.87 12.03C2.11 11.27 1.81 10.46 2.03 9.76C2.26 9.06 2.97 8.58 4.03 8.4L7.15 7.88C7.6 7.8 8.15 7.4 8.36 6.99L10.08 3.54C10.58 2.55 11.26 2 12 2Z"
        fill="#004A45" />
</svg>
