<svg width="25" height="24" viewBox="0 0 25 24" fill="none" xmlns="http://www.w3.org/2000/svg">
    <path
        d="M18.9216 18.972L18.6028 19.2651C18.5487 19.3075 18.4971 19.3531 18.473 19.3745C18.4665 19.3802 18.462 19.3842 18.4599 19.3859C18.2949 19.5234 18.1174 19.6545 17.9233 19.7904L17.9233 19.7904L17.9194 19.7931C17.8714 19.8274 17.8432 19.8487 17.8232 19.8639C17.7974 19.8834 17.7852 19.8926 17.7619 19.9059L17.7495 19.913L17.7375 19.9208C17.6137 20.0013 17.4983 20.0685 17.372 20.1421C17.3044 20.1815 17.2337 20.2228 17.1569 20.2688C17.1219 20.2889 17.0853 20.3119 17.0586 20.3286C17.0517 20.3329 17.0454 20.3368 17.0401 20.3402C17.007 20.3607 16.9852 20.3734 16.9664 20.3828L16.9663 20.3827L16.958 20.3871C16.759 20.4913 16.5607 20.5857 16.363 20.6704L16.3495 20.6762L16.3364 20.6828C16.2517 20.7252 16.1955 20.7527 16.1444 20.7718L16.1336 20.7759L16.123 20.7804C15.999 20.8336 15.88 20.8743 15.7437 20.921C15.6722 20.9455 15.5958 20.9716 15.5115 21.002C15.4134 21.0284 15.3213 21.063 15.2533 21.0885L15.2503 21.0896C15.1084 21.1386 14.9656 21.1724 14.7982 21.212C14.7368 21.2265 14.6721 21.2418 14.603 21.2589C14.5397 21.2692 14.4862 21.2839 14.4555 21.2924L14.4533 21.293C14.416 21.3033 14.408 21.3051 14.408 21.3052L14.3922 21.3075L14.3752 21.3111C14.1175 21.3663 13.8562 21.4039 13.5785 21.4327L13.5432 21.4363L13.5087 21.4449L13.4881 21.45H13.4873L13.4647 21.4521C13.1452 21.4811 12.8209 21.5 12.5 21.5C12.1916 21.5 11.8798 21.4825 11.5623 21.4553C11.5226 21.446 11.4616 21.434 11.3938 21.4308C11.1227 21.4023 10.867 21.3651 10.6148 21.3111L10.5935 21.3066L10.572 21.3039C10.5356 21.2993 10.5008 21.2902 10.4274 21.2692L10.4194 21.2669L10.4113 21.2649C10.1698 21.2046 9.93915 21.1468 9.71 21.08L9.70068 21.0773L9.69127 21.0749C9.64374 21.063 9.59075 21.0438 9.50557 21.0118L9.49369 21.0074L9.4816 21.0035C9.27472 20.9377 9.0673 20.8623 8.85932 20.7772L8.85248 20.7744L8.84557 20.7718C8.79451 20.7527 8.73834 20.7252 8.65361 20.6828L8.63676 20.6744L8.61932 20.6672C8.41764 20.5847 8.22618 20.4936 8.04469 20.3939C8.01604 20.3775 7.98431 20.3585 7.94724 20.3363L7.94509 20.335C7.90912 20.3134 7.86775 20.2886 7.82807 20.2659L7.82012 20.2613L7.812 20.2571C7.62033 20.1567 7.4385 20.0476 7.26632 19.9301C7.22988 19.9041 7.1962 19.8808 7.16544 19.8595L7.16461 19.8589C7.1328 19.8369 7.104 19.8169 7.0735 19.7952C7.02557 19.7599 6.97907 19.726 6.93382 19.6931C6.78797 19.5868 6.65519 19.4901 6.53009 19.3859L6.50958 19.3688L6.48735 19.354C6.47173 19.3436 6.46651 19.3388 6.45281 19.3263C6.43907 19.3137 6.4168 19.2933 6.36696 19.2516C6.32045 19.2103 6.27083 19.1705 6.23 19.1381V19.1213L6.06937 18.9728C4.18599 17.2321 3 14.7529 3 12C3 6.76614 7.26614 2.5 12.5 2.5C17.7339 2.5 22 6.76614 22 12C22 14.7527 20.8142 17.2315 18.9216 18.972ZM17.1612 17.3851L17.1612 17.3851L17.1648 17.3875C17.5627 17.6497 17.8919 17.9537 18.1465 18.2784L18.4969 18.7255L18.8959 18.3212C20.5037 16.6923 21.5 14.4578 21.5 12C21.5 7.03386 17.4661 3 12.5 3C7.53386 3 3.5 7.03386 3.5 12C3.5 14.4578 4.49632 16.6923 6.10414 18.3212L6.49656 18.7188L6.84838 18.2849C7.11891 17.9512 7.44149 17.6469 7.83516 17.3875L7.83735 17.386C9.10356 16.5419 10.7941 16.105 12.5075 16.105C14.2211 16.105 15.9058 16.5419 17.1612 17.3851Z"
        fill="#004A45" stroke="#004A45" />
    <path
        d="M9.25 10.68C9.25 8.88614 10.7061 7.42999 12.5 7.42999C14.2935 7.42999 15.7493 8.88548 15.75 10.6788C15.7407 12.4381 14.3673 13.8551 12.621 13.92H12.621H12.621H12.6209H12.6209H12.6208H12.6208H12.6207H12.6207H12.6206H12.6206H12.6205H12.6205H12.6204H12.6204H12.6203H12.6203H12.6202H12.6202H12.6201H12.6201H12.62H12.62H12.6199H12.6199H12.6198H12.6198H12.6197H12.6196H12.6196H12.6195H12.6195H12.6194H12.6194H12.6193H12.6193H12.6192H12.6192H12.6191H12.6191H12.619H12.619H12.6189H12.6189H12.6188H12.6188H12.6187H12.6186H12.6186H12.6185H12.6185H12.6184H12.6184H12.6183H12.6183H12.6182H12.6182H12.6181H12.6181H12.618H12.6179H12.6179H12.6178H12.6178H12.6177H12.6177H12.6176H12.6176H12.6175H12.6175H12.6174H12.6173H12.6173H12.6172H12.6172H12.6171H12.6171H12.617H12.617H12.6169H12.6168H12.6168H12.6167H12.6167H12.6166H12.6166H12.6165H12.6165H12.6164H12.6163H12.6163H12.6162H12.6162H12.6161H12.6161H12.616H12.616H12.6159H12.6158H12.6158H12.6157H12.6157H12.6156H12.6156H12.6155H12.6154H12.6154H12.6153H12.6153H12.6152H12.6152H12.6151H12.615H12.615H12.6149H12.6149H12.6148H12.6148H12.6147H12.6146H12.6146H12.6145H12.6145H12.6144H12.6144H12.6143H12.6142H12.6142H12.6141H12.6141H12.614H12.614H12.6139H12.6138H12.6138H12.6137H12.6137H12.6136H12.6136H12.6135H12.6134H12.6134H12.6133H12.6133H12.6132H12.6132H12.6131H12.613H12.613H12.6129H12.6129H12.6128H12.6127H12.6127H12.6126H12.6126H12.6125H12.6125H12.6124H12.6123H12.6123H12.6122H12.6122H12.6121H12.612H12.612H12.6119H12.6119H12.6118H12.6118H12.6117H12.6116H12.6116H12.6115H12.6115H12.6114H12.6113H12.6113H12.6112H12.6112H12.6111H12.6111H12.611H12.6109H12.6109H12.6108H12.6108H12.6107H12.6106H12.6106H12.6105H12.6105H12.6104H12.6104H12.6103H12.6102H12.6102H12.6101H12.6101H12.61H12.6099H12.6098H12.6096H12.6095H12.6094H12.6093H12.6092H12.6091H12.6089H12.6088H12.6087H12.6086H12.6085H12.6083H12.6082H12.6081H12.608H12.6079H12.6077H12.6076H12.6075H12.6074H12.6072H12.6071H12.607H12.6069H12.6068H12.6066H12.6065H12.6064H12.6063H12.6061H12.606H12.6059H12.6058H12.6056H12.6055H12.6054H12.6053H12.6051H12.605H12.6049H12.6048H12.6046H12.6045H12.6044H12.6043H12.6041H12.604H12.6039H12.6037H12.6036H12.6035H12.6034H12.6032H12.6031H12.603H12.6028H12.6027H12.6026H12.6025H12.6023H12.6022H12.6021H12.6019H12.6018H12.6017H12.6015H12.6014H12.6013H12.6012H12.601H12.6009H12.6008H12.6006H12.6005H12.6004H12.6002H12.6001H12.6H12.5998H12.5997H12.5996H12.5994H12.5993H12.5992H12.599H12.5989H12.5988H12.5986H12.5985H12.5984H12.5982H12.5981H12.598H12.5978H12.5977H12.5976H12.5974H12.5973H12.5971H12.597H12.5969H12.5967H12.5966H12.5965H12.5963H12.5962H12.5961H12.5959H12.5958H12.5956H12.5955H12.5954H12.5952H12.5951H12.595H12.5948H12.5947H12.5945H12.5944H12.5943H12.5941H12.594H12.5939H12.5937H12.5936H12.5934H12.5933H12.5932H12.593H12.5929H12.5927H12.5926H12.5925H12.5923H12.5922H12.592H12.5919H12.5918H12.5916H12.5915H12.5913H12.5912H12.5911H12.5909H12.5908H12.5906H12.5905H12.5903H12.5902H12.5901H12.5899H12.5898H12.5896H12.5895H12.5894H12.5892H12.5891H12.5889H12.5888H12.5886H12.5885H12.5884H12.5882H12.5881H12.5879H12.5878H12.5876H12.5875H12.5874H12.5872H12.5871H12.5869H12.5868H12.5866H12.5865H12.5864H12.5862H12.5861H12.5859H12.5858H12.5856H12.5855H12.5853H12.5852H12.5851H12.5849H12.5848H12.5846H12.5845H12.5843H12.5842H12.584H12.5839H12.5838H12.5836H12.5835H12.5833H12.5832H12.583H12.5829H12.5827H12.5826H12.5825H12.5823H12.5822H12.582H12.5819H12.5817H12.5816H12.5814H12.5813H12.5811H12.581H12.5808H12.5807H12.5806H12.5804H12.5803H12.5801H12.58H12.5798H12.5797H12.5795H12.5794H12.5792H12.5791H12.579H12.5788H12.5787H12.5785H12.5784H12.5782H12.5781H12.5779H12.5778H12.5776H12.5775H12.5773H12.5772H12.5771H12.5769H12.5768H12.5766H12.5765H12.5763H12.5762H12.576H12.5759H12.5757H12.5756H12.5754H12.5753H12.5751H12.575H12.5749H12.5747H12.5746H12.5744H12.5743H12.5741H12.574H12.5738H12.5737H12.5735H12.5734H12.5732H12.5731H12.5729H12.5728H12.5727H12.5725H12.5724H12.5722H12.5721H12.5719H12.5718H12.5716H12.5715H12.5713H12.5712H12.571H12.5709H12.5708H12.5706H12.5705H12.5703H12.5702H12.57H12.5699H12.5697H12.5696H12.5694H12.5693H12.5691H12.569H12.5689H12.5687H12.5686H12.5684H12.5683H12.5681H12.568H12.5678H12.5677H12.5675H12.5674H12.5673H12.5671H12.567H12.5668H12.5667H12.5665H12.5664H12.5662H12.5661H12.566H12.5658H12.5657H12.5655H12.5654H12.5652H12.5651H12.5649H12.5648H12.5647H12.5645H12.5644H12.5642H12.5641H12.5639H12.5638H12.5636H12.5635H12.5634H12.5632H12.5631H12.5629H12.5628H12.5626H12.5625H12.5624H12.5622H12.5621H12.5619H12.5618H12.5616H12.5615H12.5614H12.5612H12.5611H12.5609H12.5608H12.5606H12.5605H12.5604H12.5602H12.5601H12.5599H12.5598H12.5596H12.5595H12.5594H12.5592H12.5591H12.5589H12.5588H12.5587H12.5585H12.5584H12.5582H12.5581H12.558H12.5578H12.5577H12.5575H12.5574H12.5573H12.5571H12.557H12.5568H12.5567H12.5566H12.5564H12.5563H12.5561H12.556H12.5559H12.5557H12.5556H12.5555H12.5553H12.5552H12.555H12.5549H12.5548H12.5546H12.5545H12.5544H12.5542H12.5541H12.5539H12.5538H12.5537H12.5535H12.5534H12.5533H12.5531H12.553H12.5528H12.5527H12.5526H12.5524H12.5523H12.5522H12.552H12.5519H12.5518H12.5516H12.5515H12.5514H12.5512H12.5511H12.551H12.5508H12.5507H12.5506H12.5504H12.5503H12.5502H12.55H12.5499H12.5498H12.5496H12.5495H12.5494H12.5492H12.5491H12.549H12.5488H12.5487H12.5486H12.5485H12.5483H12.5482H12.5481H12.5479H12.5478H12.5477H12.5475H12.5474H12.5473H12.5472H12.547H12.5469H12.5468H12.5466H12.5465H12.5464H12.5463H12.5461H12.546H12.5459H12.5457H12.5456H12.5455H12.5454H12.5452H12.5451H12.545H12.5449H12.5447H12.5446H12.5445H12.5444H12.5442H12.5441H12.544H12.5439H12.5437H12.5436H12.5435H12.5434H12.5432H12.5431H12.543H12.5429H12.5428H12.5426H12.5425H12.5424H12.5423H12.5421H12.542H12.5419H12.5418H12.5417H12.5415H12.5414H12.5413H12.5412H12.5411H12.5409H12.5408H12.5407H12.5406H12.5405H12.5404H12.5402H12.5401H12.54H12.5399H12.5398H12.5396H12.5395H12.5394H12.5393H12.5392H12.539H12.5389H12.5388H12.5387H12.5386H12.5384H12.5383H12.5382H12.5381H12.5379H12.5378H12.5377H12.5376H12.5374H12.5373H12.5372H12.5371H12.5369H12.5368H12.5367H12.5365H12.5364H12.5363H12.5362H12.536H12.5359H12.5358H12.5356H12.5355H12.5354H12.5352H12.5351H12.535H12.5348H12.5347H12.5346H12.5344H12.5343H12.5341H12.534H12.5339H12.5337H12.5336H12.5335H12.5333H12.5332H12.533H12.5329H12.5328H12.5326H12.5325H12.5323H12.5322H12.5321H12.5319H12.5318H12.5316H12.5315H12.5313H12.5312H12.531H12.5309H12.5308H12.5306H12.5305H12.5303H12.5302H12.53H12.5299H12.5297H12.5296H12.5294H12.5293H12.5291H12.529H12.5288H12.5287H12.5285H12.5284H12.5282H12.5281H12.5279H12.5278H12.5276H12.5275H12.5273H12.5271H12.527H12.5268H12.5267H12.5265H12.5264H12.5262H12.5261H12.5259H12.5257H12.5256H12.5254H12.5253H12.5251H12.525H12.5248H12.5246H12.5245H12.5243H12.5242H12.524H12.5238H12.5237H12.5235H12.5234H12.5232H12.523H12.5229H12.5227H12.5225H12.5224H12.5222H12.522H12.5219H12.5217H12.5216H12.5214H12.5212H12.5211H12.5209H12.5207H12.5206H12.5204H12.5202H12.5201H12.5199H12.5197H12.5196H12.5194H12.5192H12.519H12.5189H12.5187H12.5185H12.5184H12.5182H12.518H12.5179H12.5177H12.5175H12.5173H12.5172H12.517H12.5168H12.5167H12.5165H12.5163H12.5161H12.516H12.5158H12.5156H12.5154H12.5153H12.5151H12.5149H12.5147H12.5146H12.5144H12.5142H12.514H12.5139H12.5137H12.5135H12.5133H12.5131H12.513H12.5128H12.5126H12.5124H12.5123H12.5121H12.5119H12.5117H12.5115H12.5114H12.5112H12.511H12.5108H12.5106H12.5105H12.5103H12.5101H12.5099H12.5097H12.5096H12.5094H12.5092H12.509H12.5088H12.5086H12.5085H12.5083H12.5081H12.5079H12.5077H12.5076H12.5074H12.5072H12.507H12.5068H12.5066H12.5064H12.5063H12.5061H12.5059H12.5057H12.5055H12.5053H12.5051H12.505H12.5048H12.5046H12.5044H12.5042H12.504H12.5038H12.5037H12.5035H12.5033H12.5031H12.5029H12.5027H12.5025H12.5023H12.5022H12.502H12.5018H12.5016H12.5014H12.5012H12.501H12.5008H12.5006H12.5005H12.5003H12.5001H12.4999H12.4997H12.4995H12.4993H12.4991H12.4989H12.4987H12.4986H12.4984H12.4982H12.498H12.4978H12.4976H12.4974H12.4972H12.497H12.4968H12.4966H12.4965H12.4963H12.4961H12.4959H12.4957H12.4955H12.4953H12.4951H12.4949H12.4947H12.4945H12.4943H12.4941H12.494H12.4938H12.4936H12.4934H12.4932H12.493H12.4928H12.4926H12.4924H12.4922H12.492H12.4918H12.4916H12.4914H12.4912H12.4911H12.4909H12.4907H12.4905H12.4903H12.4901H12.4899H12.4897H12.4895H12.4893H12.4891H12.4889H12.4887H12.4885H12.4883H12.4881H12.4879H12.4878H12.4876H12.4874H12.4872H12.487H12.4868H12.4866H12.4864H12.4862H12.486H12.4858H12.4856H12.4854H12.4852H12.485H12.4848H12.4846H12.4844H12.4842H12.484H12.4838H12.4837H12.4835H12.4833H12.4831H12.4829H12.4827H12.4825H12.4823H12.4821H12.4819H12.4817H12.4815H12.4813H12.4811H12.4809H12.4807H12.4805H12.4803H12.4801H12.4799H12.4797H12.4796H12.4794H12.4792H12.479H12.4788H12.4786H12.4784H12.4782H12.478H12.4778H12.4776H12.4774H12.4772H12.477H12.4768H12.4766H12.4764H12.4762H12.476H12.4758H12.4757H12.4755H12.4753H12.4751H12.4749H12.4747H12.4745H12.4743H12.4741H12.4739H12.4737H12.4735H12.4733H12.4731H12.4729H12.4727H12.4725H12.4724H12.4722H12.472H12.4718H12.4716H12.4714H12.4712H12.471H12.4708H12.4706H12.4704H12.4702H12.47H12.4698H12.4697H12.4695H12.4693H12.4691H12.4689H12.4687H12.4685H12.4683H12.4681H12.4679H12.4677H12.4675H12.4673H12.4672H12.467H12.4668H12.4666H12.4664H12.4662H12.466H12.4658H12.4656H12.4654H12.4653H12.4651H12.4649H12.4647H12.4645H12.4643H12.4641H12.4639H12.4637H12.4635H12.4634H12.4632H12.463H12.4628H12.4626H12.4624H12.4622H12.462H12.4618H12.4617H12.4615H12.4613H12.4611H12.4609H12.4607H12.4605H12.4603H12.4602H12.46H12.4598H12.4596H12.4594H12.4592H12.459H12.4589H12.4587H12.4585H12.4583H12.4581H12.4579H12.4578H12.4576H12.4574H12.4573C10.6168 13.8642 9.25 12.4327 9.25 10.68Z"
        fill="#004A45" stroke="#004A45" />
</svg>
